<svg id="visual" viewBox="0 0 1920 1080" width="1920" height="1080" xmlns="http://www.w3.org/2000/svg" xmlns:xlink="http://www.w3.org/1999/xlink" version="1.1"><g stroke-width="1" stroke-linejoin="bevel"><path d="M1031.7 533L872.3 511L1031.7 717Z" fill="#dddddd" stroke="#dddddd"></path><path d="M872.3 511L823.3 693L1031.7 717Z" fill="#dddddd" stroke="#dddddd"></path><path d="M1087.7 329L827.3 357L872.3 511Z" fill="#eaeaea" stroke="#eaeaea"></path><path d="M613 501L611 735L823.3 693Z" fill="#e0e0e0" stroke="#e0e0e0"></path><path d="M823.3 693L866.3 919L1031.7 717Z" fill="#eaeaea" stroke="#eaeaea"></path><path d="M1297 708L1248 576L1031.7 717Z" fill="#eaeaea" stroke="#eaeaea"></path><path d="M1031.7 717L1248 576L1031.7 533Z" fill="#e5e5e5" stroke="#e5e5e5"></path><path d="M1031.7 533L1087.7 329L872.3 511Z" fill="#dfdfdf" stroke="#dfdfdf"></path><path d="M866.3 919L1086.7 912L1031.7 717Z" fill="#ececec" stroke="#ececec"></path><path d="M1248 576L1087.7 329L1031.7 533Z" fill="#e5e5e5" stroke="#e5e5e5"></path><path d="M613 501L823.3 693L872.3 511Z" fill="#eeeeee" stroke="#eeeeee"></path><path d="M823.3 693L612 862L866.3 919Z" fill="#eaeaea" stroke="#eaeaea"></path><path d="M651 389L613 501L872.3 511Z" fill="#eaeaea" stroke="#eaeaea"></path><path d="M1086.7 912L1297 708L1031.7 717Z" fill="#e7e7e7" stroke="#e7e7e7"></path><path d="M827.3 357L651 389L872.3 511Z" fill="#e0e0e0" stroke="#e0e0e0"></path><path d="M611 735L612 862L823.3 693Z" fill="#e2e2e2" stroke="#e2e2e2"></path><path d="M1069.7 200L823.3 212L827.3 357Z" fill="#e2e2e2" stroke="#e2e2e2"></path><path d="M827.3 357L823.3 212L651 389Z" fill="#e0e0e0" stroke="#e0e0e0"></path><path d="M1252 176L1069.7 200L1087.7 329Z" fill="#e3e3e3" stroke="#e3e3e3"></path><path d="M1087.7 329L1069.7 200L827.3 357Z" fill="#eaeaea" stroke="#eaeaea"></path><path d="M1086.7 912L1307 897L1297 708Z" fill="#ececec" stroke="#ececec"></path><path d="M639 1080L869.3 1080L866.3 919Z" fill="#e3e3e3" stroke="#e3e3e3"></path><path d="M866.3 919L1086.7 1080L1086.7 912Z" fill="#eaeaea" stroke="#eaeaea"></path><path d="M1086.7 912L1241 1080L1307 897Z" fill="#e5e5e5" stroke="#e5e5e5"></path><path d="M869.3 1080L1086.7 1080L866.3 919Z" fill="#eaeaea" stroke="#eaeaea"></path><path d="M1485.3 529L1315 330L1248 576Z" fill="#e2e2e2" stroke="#e2e2e2"></path><path d="M1248 576L1315 330L1087.7 329Z" fill="#eeeeee" stroke="#eeeeee"></path><path d="M1485.3 529L1248 576L1297 708Z" fill="#dddddd" stroke="#dddddd"></path><path d="M651 389L435.7 507L613 501Z" fill="#e5e5e5" stroke="#e5e5e5"></path><path d="M613 501L435.7 507L611 735Z" fill="#e2e2e2" stroke="#e2e2e2"></path><path d="M611 735L464.7 871L612 862Z" fill="#e2e2e2" stroke="#e2e2e2"></path><path d="M416.7 325L435.7 507L651 389Z" fill="#e0e0e0" stroke="#e0e0e0"></path><path d="M400.7 713L464.7 871L611 735Z" fill="#e2e2e2" stroke="#e2e2e2"></path><path d="M612 862L639 1080L866.3 919Z" fill="#dfdfdf" stroke="#dfdfdf"></path><path d="M435.7 507L400.7 713L611 735Z" fill="#ececec" stroke="#ececec"></path><path d="M454.7 1080L639 1080L612 862Z" fill="#ececec" stroke="#ececec"></path><path d="M1086.7 1080L1241 1080L1086.7 912Z" fill="#eaeaea" stroke="#eaeaea"></path><path d="M1315 330L1252 176L1087.7 329Z" fill="#e3e3e3" stroke="#e3e3e3"></path><path d="M666 0L628 147L823.3 212Z" fill="#e9e9e9" stroke="#e9e9e9"></path><path d="M1512.3 899L1477.3 736L1307 897Z" fill="#e5e5e5" stroke="#e5e5e5"></path><path d="M1307 897L1477.3 736L1297 708Z" fill="#ececec" stroke="#ececec"></path><path d="M1477.3 736L1485.3 529L1297 708Z" fill="#eaeaea" stroke="#eaeaea"></path><path d="M1315 330L1531.3 197L1252 176Z" fill="#eeeeee" stroke="#eeeeee"></path><path d="M880.3 0L823.3 212L1069.7 200Z" fill="#eeeeee" stroke="#eeeeee"></path><path d="M823.3 212L628 147L651 389Z" fill="#e3e3e3" stroke="#e3e3e3"></path><path d="M1485.3 529L1456.3 335L1315 330Z" fill="#e7e7e7" stroke="#e7e7e7"></path><path d="M456.7 169L416.7 325L651 389Z" fill="#e9e9e9" stroke="#e9e9e9"></path><path d="M213.3 508L225.3 757L400.7 713Z" fill="#e9e9e9" stroke="#e9e9e9"></path><path d="M1051.7 0L880.3 0L1069.7 200Z" fill="#e5e5e5" stroke="#e5e5e5"></path><path d="M1252 176L1051.7 0L1069.7 200Z" fill="#ececec" stroke="#ececec"></path><path d="M1263 0L1051.7 0L1252 176Z" fill="#dfdfdf" stroke="#dfdfdf"></path><path d="M1476.3 1080L1512.3 899L1307 897Z" fill="#e2e2e2" stroke="#e2e2e2"></path><path d="M1477.3 736L1721.7 759L1485.3 529Z" fill="#e0e0e0" stroke="#e0e0e0"></path><path d="M395.7 0L456.7 169L628 147Z" fill="#e3e3e3" stroke="#e3e3e3"></path><path d="M628 147L456.7 169L651 389Z" fill="#e3e3e3" stroke="#e3e3e3"></path><path d="M464.7 871L454.7 1080L612 862Z" fill="#e7e7e7" stroke="#e7e7e7"></path><path d="M237.3 1080L454.7 1080L464.7 871Z" fill="#e2e2e2" stroke="#e2e2e2"></path><path d="M880.3 0L666 0L823.3 212Z" fill="#eeeeee" stroke="#eeeeee"></path><path d="M1458.3 0L1263 0L1252 176Z" fill="#dfdfdf" stroke="#dfdfdf"></path><path d="M1241 1080L1476.3 1080L1307 897Z" fill="#e3e3e3" stroke="#e3e3e3"></path><path d="M213.3 508L400.7 713L435.7 507Z" fill="#e5e5e5" stroke="#e5e5e5"></path><path d="M400.7 713L225.3 757L464.7 871Z" fill="#eeeeee" stroke="#eeeeee"></path><path d="M247.3 381L435.7 507L416.7 325Z" fill="#e5e5e5" stroke="#e5e5e5"></path><path d="M1743.7 340L1531.3 197L1456.3 335Z" fill="#e3e3e3" stroke="#e3e3e3"></path><path d="M1456.3 335L1531.3 197L1315 330Z" fill="#e7e7e7" stroke="#e7e7e7"></path><path d="M1743.7 340L1456.3 335L1485.3 529Z" fill="#eeeeee" stroke="#eeeeee"></path><path d="M247.3 153L247.3 381L416.7 325Z" fill="#e7e7e7" stroke="#e7e7e7"></path><path d="M247.3 381L213.3 508L435.7 507Z" fill="#e0e0e0" stroke="#e0e0e0"></path><path d="M1704.7 894L1721.7 759L1512.3 899Z" fill="#eaeaea" stroke="#eaeaea"></path><path d="M1512.3 899L1721.7 759L1477.3 736Z" fill="#dfdfdf" stroke="#dfdfdf"></path><path d="M1721.7 759L1738.7 505L1485.3 529Z" fill="#e9e9e9" stroke="#e9e9e9"></path><path d="M1719.7 1080L1704.7 894L1512.3 899Z" fill="#e5e5e5" stroke="#e5e5e5"></path><path d="M1713.7 0L1458.3 0L1531.3 197Z" fill="#eeeeee" stroke="#eeeeee"></path><path d="M1531.3 197L1458.3 0L1252 176Z" fill="#e9e9e9" stroke="#e9e9e9"></path><path d="M0 888L175.3 938L225.3 757Z" fill="#e0e0e0" stroke="#e0e0e0"></path><path d="M225.3 757L175.3 938L464.7 871Z" fill="#e2e2e2" stroke="#e2e2e2"></path><path d="M666 0L395.7 0L628 147Z" fill="#e2e2e2" stroke="#e2e2e2"></path><path d="M456.7 169L247.3 153L416.7 325Z" fill="#e2e2e2" stroke="#e2e2e2"></path><path d="M175.3 938L237.3 1080L464.7 871Z" fill="#e3e3e3" stroke="#e3e3e3"></path><path d="M0 549L0 689L213.3 508Z" fill="#e7e7e7" stroke="#e7e7e7"></path><path d="M395.7 0L247.3 153L456.7 169Z" fill="#e5e5e5" stroke="#e5e5e5"></path><path d="M1738.7 505L1743.7 340L1485.3 529Z" fill="#dddddd" stroke="#dddddd"></path><path d="M1476.3 1080L1719.7 1080L1512.3 899Z" fill="#e0e0e0" stroke="#e0e0e0"></path><path d="M1920 889L1920 693L1721.7 759Z" fill="#e5e5e5" stroke="#e5e5e5"></path><path d="M1721.7 759L1920 693L1738.7 505Z" fill="#dddddd" stroke="#dddddd"></path><path d="M1743.7 340L1737.7 146L1531.3 197Z" fill="#eeeeee" stroke="#eeeeee"></path><path d="M213.3 508L0 689L225.3 757Z" fill="#eeeeee" stroke="#eeeeee"></path><path d="M175.3 938L0 1080L237.3 1080Z" fill="#eeeeee" stroke="#eeeeee"></path><path d="M0 549L213.3 508L0 361Z" fill="#e7e7e7" stroke="#e7e7e7"></path><path d="M0 361L213.3 508L247.3 381Z" fill="#e3e3e3" stroke="#e3e3e3"></path><path d="M395.7 0L208.3 0L247.3 153Z" fill="#eeeeee" stroke="#eeeeee"></path><path d="M0 217L0 361L247.3 381Z" fill="#e9e9e9" stroke="#e9e9e9"></path><path d="M0 689L0 888L225.3 757Z" fill="#e9e9e9" stroke="#e9e9e9"></path><path d="M0 217L247.3 381L247.3 153Z" fill="#e5e5e5" stroke="#e5e5e5"></path><path d="M1920 889L1721.7 759L1704.7 894Z" fill="#eaeaea" stroke="#eaeaea"></path><path d="M1738.7 505L1920 331L1743.7 340Z" fill="#dddddd" stroke="#dddddd"></path><path d="M1743.7 340L1920 194L1737.7 146Z" fill="#dfdfdf" stroke="#dfdfdf"></path><path d="M1920 693L1920 556L1738.7 505Z" fill="#ececec" stroke="#ececec"></path><path d="M1920 0L1713.7 0L1737.7 146Z" fill="#e7e7e7" stroke="#e7e7e7"></path><path d="M1737.7 146L1713.7 0L1531.3 197Z" fill="#e9e9e9" stroke="#e9e9e9"></path><path d="M1719.7 1080L1920 889L1704.7 894Z" fill="#e0e0e0" stroke="#e0e0e0"></path><path d="M0 0L0 217L247.3 153Z" fill="#e0e0e0" stroke="#e0e0e0"></path><path d="M1920 556L1920 331L1738.7 505Z" fill="#e3e3e3" stroke="#e3e3e3"></path><path d="M0 888L0 1080L175.3 938Z" fill="#e2e2e2" stroke="#e2e2e2"></path><path d="M1920 331L1920 194L1743.7 340Z" fill="#e2e2e2" stroke="#e2e2e2"></path><path d="M1719.7 1080L1920 1080L1920 889Z" fill="#e0e0e0" stroke="#e0e0e0"></path><path d="M208.3 0L0 0L247.3 153Z" fill="#e0e0e0" stroke="#e0e0e0"></path><path d="M1920 194L1920 0L1737.7 146Z" fill="#e2e2e2" stroke="#e2e2e2"></path></g></svg>